<svg width="24" height="24" viewBox="0 0 24 24" fill="none" xmlns="http://www.w3.org/2000/svg">
<path d="M20 11.4731L12.4356 19.0376C11.5089 19.9643 10.252 20.4849 8.94144 20.4849C7.63089 20.4849 6.37401 19.9643 5.44731 19.0376C4.52061 18.1109 4 16.854 4 15.5435C4 14.2329 4.52061 12.976 5.44731 12.0493L13.0117 4.4849C13.6295 3.8671 14.4675 3.52002 15.3412 3.52002C16.2149 3.52002 17.0528 3.8671 17.6706 4.4849C18.2884 5.1027 18.6355 5.94061 18.6355 6.81431C18.6355 7.68801 18.2884 8.52593 17.6706 9.14373L10.0979 16.7082C9.78902 17.0171 9.37006 17.1906 8.93321 17.1906C8.49636 17.1906 8.0774 17.0171 7.7685 16.7082C7.4596 16.3993 7.28606 15.9803 7.28606 15.5435C7.28606 15.1066 7.4596 14.6876 7.7685 14.3787L14.7568 7.39873" stroke="#767E8C" stroke-width="1.5" stroke-linecap="round" stroke-linejoin="round"/>
</svg>
